<svg width="32" height="19" viewBox="0 0 32 19" fill="none" xmlns="http://www.w3.org/2000/svg">
<path d="M31.8304 16.4885C31.7916 16.405 31.7555 16.3357 31.7219 16.2802C31.1667 15.2803 30.1058 14.0529 28.5397 12.5978L28.5066 12.5645L28.49 12.5482L28.4733 12.5314H28.4564C27.7457 11.8538 27.2956 11.3983 27.1071 11.165C26.7622 10.7207 26.6849 10.2709 26.8734 9.81523C27.0066 9.47093 27.5068 8.74381 28.3729 7.63289C28.8285 7.04414 29.1893 6.57227 29.4558 6.21676C31.3775 3.66194 32.2107 2.02937 31.9551 1.31842L31.8558 1.15228C31.7891 1.05225 31.617 0.960752 31.3396 0.877303C31.0616 0.794028 30.7062 0.780257 30.273 0.835754L25.4747 0.868899C25.397 0.841355 25.286 0.843923 25.1414 0.877303C24.9969 0.910682 24.9247 0.927431 24.9247 0.927431L24.8412 0.969155L24.7749 1.01928C24.7193 1.05243 24.6582 1.11073 24.5915 1.19406C24.5252 1.2771 24.4697 1.37455 24.4253 1.48561C23.9029 2.8296 23.309 4.07918 22.6424 5.23428C22.2314 5.92306 21.8539 6.51998 21.5092 7.0254C21.165 7.53065 20.8762 7.9029 20.6431 8.14152C20.4097 8.38037 20.199 8.57172 20.0098 8.71627C19.8209 8.86088 19.6767 8.92197 19.5769 8.89962C19.4768 8.87727 19.3826 8.8551 19.2933 8.83292C19.1379 8.7329 19.0129 8.59687 18.9187 8.42472C18.824 8.25257 18.7603 8.0359 18.727 7.77487C18.6938 7.51367 18.6742 7.289 18.6686 7.1001C18.6634 6.91143 18.6658 6.64457 18.6771 6.30027C18.6886 5.9558 18.6938 5.72272 18.6938 5.60052C18.6938 5.17838 18.7021 4.72022 18.7186 4.22595C18.7354 3.73167 18.749 3.34004 18.7604 3.05153C18.7717 2.76273 18.7769 2.45718 18.7769 2.13505C18.7769 1.81293 18.7573 1.5603 18.7186 1.37695C18.6803 1.19383 18.6215 1.01607 18.5441 0.843748C18.4662 0.671598 18.3522 0.538429 18.2025 0.443893C18.0526 0.349472 17.8662 0.274543 17.6444 0.218872C17.0557 0.0856447 16.306 0.013575 15.395 0.00237064C13.3291 -0.0198047 12.0017 0.113597 11.413 0.402401C11.1797 0.524424 10.9687 0.691146 10.7799 0.902045C10.58 1.1465 10.5521 1.2799 10.6964 1.30184C11.363 1.40169 11.8348 1.64054 12.1126 2.01816L12.2126 2.21827C12.2905 2.36264 12.3682 2.61824 12.446 2.98471C12.5237 3.35119 12.5738 3.75659 12.5959 4.20068C12.6513 5.01165 12.6513 5.70586 12.5959 6.28335C12.5402 6.86107 12.4877 7.31082 12.4376 7.63295C12.3875 7.95507 12.3125 8.2161 12.2126 8.41597C12.1126 8.6159 12.046 8.73809 12.0126 8.78244C11.9793 8.8268 11.9515 8.85475 11.9294 8.86572C11.7851 8.92104 11.6349 8.94923 11.4795 8.94923C11.3239 8.94923 11.1351 8.87138 10.913 8.7158C10.691 8.56023 10.4606 8.34653 10.2217 8.07435C9.98285 7.80212 9.71348 7.4217 9.41347 6.93303C9.1137 6.44435 8.80266 5.8668 8.48053 5.20038L8.21402 4.71707C8.04741 4.40615 7.81983 3.95342 7.53102 3.3593C7.24204 2.76495 6.98662 2.19002 6.76457 1.63465C6.67581 1.4014 6.54247 1.22382 6.36478 1.10162L6.28139 1.0515C6.22595 1.00714 6.13695 0.960051 6.01487 0.909865C5.89262 0.859737 5.76505 0.82379 5.63165 0.801673L1.06651 0.834819C0.600017 0.834819 0.283494 0.940502 0.116829 1.15158L0.0501278 1.25142C0.0168065 1.30704 0 1.39585 0 1.51811C0 1.64031 0.0333213 1.79028 0.100022 1.96786C0.766448 3.53414 1.49117 5.04468 2.27419 6.49973C3.05721 7.95478 3.73765 9.12686 4.31508 10.0149C4.89263 10.9036 5.48132 11.7424 6.08117 12.5308C6.68101 13.3195 7.07806 13.8249 7.27233 14.0469C7.46683 14.2694 7.61961 14.4357 7.73066 14.5467L8.14726 14.9465C8.41383 15.2132 8.80529 15.5325 9.32179 15.9045C9.83842 16.2768 10.4104 16.6432 11.0379 17.0045C11.6656 17.3652 12.3958 17.6596 13.229 17.8872C14.062 18.1151 14.8728 18.2065 15.6615 18.1624H17.5775C17.9661 18.1289 18.2605 18.0067 18.4606 17.7958L18.5269 17.7123C18.5715 17.646 18.6132 17.543 18.6518 17.4044C18.6907 17.2655 18.7101 17.1126 18.7101 16.9462C18.6987 16.4687 18.7351 16.0383 18.8182 15.6552C18.9012 15.2721 18.9959 14.9833 19.1017 14.7888C19.2075 14.5945 19.3269 14.4305 19.4598 14.2976C19.593 14.1643 19.6879 14.0836 19.7435 14.0558C19.7989 14.0279 19.843 14.0089 19.8764 13.9975C20.1429 13.9087 20.4567 13.9947 20.818 14.256C21.179 14.517 21.5177 14.8393 21.8344 15.2224C22.151 15.6058 22.5314 16.0359 22.9756 16.5135C23.4201 16.9912 23.8087 17.3463 24.1418 17.5799L24.4749 17.7798C24.6974 17.9132 24.9862 18.0354 25.3417 18.1464C25.6966 18.2574 26.0075 18.2852 26.2745 18.2297L30.5395 18.1632C30.9614 18.1632 31.2896 18.0933 31.5225 17.9547C31.7558 17.8159 31.8944 17.663 31.9391 17.4966C31.9837 17.33 31.9861 17.1411 31.9475 16.9298C31.908 16.7191 31.8691 16.5718 31.8304 16.4885Z" fill="#565656"/>
</svg>
