<svg width="40" height="40" viewBox="0 0 40 40" fill="none" xmlns="http://www.w3.org/2000/svg">
<circle cx="20" cy="20" r="20" fill="#C4C4C4"/>
<path d="M19.979 19.2997C23.5094 19.2997 26.3813 16.4398 26.3813 12.9247C26.3813 9.40956 23.5094 6.54999 19.979 6.54999C16.4486 6.54999 13.5764 9.40983 13.5764 12.9247C13.5764 16.4401 16.4486 19.2997 19.979 19.2997Z" fill="white"/>
<path d="M27.3542 18.4632C26.981 18.3906 26.597 18.5366 26.3966 18.829C24.1064 22.1687 20.4134 22.2651 20 22.2651C19.5866 22.2651 15.8939 22.1687 13.604 18.8301C13.403 18.5372 13.0181 18.3906 12.6446 18.4645C7.6718 19.4498 6.3602 26.2054 6.7478 31.6913C6.7781 32.1179 7.1711 32.45 7.646 32.45H32.354C32.8289 32.45 33.2222 32.1179 33.2522 31.6913C33.6401 26.1995 32.3282 19.4401 27.3542 18.4632Z" fill="white"/>
</svg>
