<svg width="35" height="33" viewBox="0 0 35 33" fill="none" xmlns="http://www.w3.org/2000/svg">
<path d="M11.7154 32.3084V27.5237C11.7154 27.1418 12.0199 26.8321 12.3944 26.8321H22.8317V26.8347H23.3212C26.4252 26.8347 28.9505 24.263 28.9505 21.1011C28.9505 17.9399 26.4252 15.3674 23.3212 15.3674L10.6902 15.358L15.5748 20.3137C15.8271 20.5707 15.8271 21.0251 15.5748 21.2817L12.5391 24.3733C12.4131 24.5016 12.2417 24.5738 12.0639 24.5738C11.8858 24.5738 11.7147 24.5016 11.5888 24.3733L0.197468 12.771C-0.0658228 12.5035 -0.0658228 12.0704 0.197468 11.803L11.5884 0.200287C11.8509 -0.066761 12.2762 -0.066761 12.5387 0.200287L15.5745 3.29115C15.7004 3.41944 15.7713 3.59373 15.7713 3.77513C15.7713 3.95653 15.7004 4.13082 15.5745 4.25911L10.6898 9.19724L23.3208 9.20584C29.7606 9.20584 35 14.5419 35 21.1011C35 27.6602 29.761 32.9966 23.3212 32.9966L12.3944 33C12.0199 33 11.7154 32.6907 11.7154 32.3084Z" fill="#565656"/>
</svg>
