<svg width="26" height="30" viewBox="0 0 26 30" fill="none" xmlns="http://www.w3.org/2000/svg">
<path d="M24.5749 4.34696H18.8239V2.74136C18.8239 1.47266 17.7919 0.440063 16.5232 0.440063H9.47714C8.20844 0.440063 7.17644 1.47236 7.17644 2.74136V4.34726H1.42544C1.09424 4.34726 0.825439 4.61606 0.825439 4.94726V6.62336C0.825439 6.95456 1.09424 7.22336 1.42544 7.22336H3.58904L3.59144 26.9718C3.59144 28.3992 4.75274 29.5602 6.17984 29.5602H19.8205C21.2476 29.5602 22.4089 28.3992 22.4089 26.9718V7.22906L24.5746 7.23056H24.5749C24.7339 7.23056 24.8866 7.16726 24.9991 7.05506C25.1116 6.94256 25.1749 6.78956 25.1749 6.63056V4.94696C25.1749 4.61576 24.9064 4.34696 24.5749 4.34696ZM9.47714 4.34696V2.74136H16.5229L16.5238 4.34726H9.47714V4.34696ZM19.5328 7.70216V26.6838H6.46724V7.70216H19.5328Z" fill="#ffffff"/>
<path d="M9.53774 23.4828H10.6384C10.9696 23.4828 11.2384 23.214 11.2384 22.8828V11.5032C11.2384 11.172 10.9696 10.9032 10.6384 10.9032H9.53774C9.20654 10.9032 8.93774 11.172 8.93774 11.5032V22.8831C8.93774 23.2143 9.20624 23.4828 9.53774 23.4828Z" fill="#ffffff"/>
<path d="M15.3615 23.4828H16.4622C16.7934 23.4828 17.0622 23.214 17.0622 22.8828V11.5032C17.0622 11.172 16.7934 10.9032 16.4622 10.9032H15.3615C15.0303 10.9032 14.7615 11.172 14.7615 11.5032V22.8831C14.7615 23.2143 15.0303 23.4828 15.3615 23.4828Z" fill="#ffffff"/>
</svg>
