<svg width="26" height="30" viewBox="0 0 26 30" fill="none" xmlns="http://www.w3.org/2000/svg">
<path d="M24.5749 4.34709H18.8239V2.74149C18.8239 1.47279 17.7919 0.440186 16.5232 0.440186H9.47714C8.20844 0.440186 7.17644 1.47249 7.17644 2.74149V4.34739H1.42544C1.09424 4.34739 0.825439 4.61619 0.825439 4.94739V6.62349C0.825439 6.95469 1.09424 7.22349 1.42544 7.22349H3.58904L3.59144 26.9719C3.59144 28.3993 4.75274 29.5603 6.17984 29.5603H19.8205C21.2476 29.5603 22.4089 28.3993 22.4089 26.9719V7.22919L24.5746 7.23069H24.5749C24.7339 7.23069 24.8866 7.16739 24.9991 7.05519C25.1116 6.94269 25.1749 6.78969 25.1749 6.63069V4.94709C25.1749 4.61589 24.9064 4.34709 24.5749 4.34709ZM9.47714 4.34709V2.74149H16.5229L16.5238 4.34739H9.47714V4.34709ZM19.5328 7.70229V26.6839H6.46724V7.70229H19.5328Z" fill="#FF7575"/>
<path d="M9.53774 23.4829H10.6384C10.9696 23.4829 11.2384 23.2141 11.2384 22.8829V11.5033C11.2384 11.1721 10.9696 10.9033 10.6384 10.9033H9.53774C9.20654 10.9033 8.93774 11.1721 8.93774 11.5033V22.8832C8.93774 23.2144 9.20624 23.4829 9.53774 23.4829Z" fill="#FF7575"/>
<path d="M15.3615 23.4829H16.4622C16.7934 23.4829 17.0622 23.2141 17.0622 22.8829V11.5033C17.0622 11.1721 16.7934 10.9033 16.4622 10.9033H15.3615C15.0303 10.9033 14.7615 11.1721 14.7615 11.5033V22.8832C14.7615 23.2144 15.0303 23.4829 15.3615 23.4829Z" fill="#FF7575"/>
</svg>
