<svg width="25" height="25" viewBox="0 0 25 25" fill="none" xmlns="http://www.w3.org/2000/svg">
<path d="M24.8353 5.8615L19.1304 0.154673C19.0397 0.0638417 18.9235 0.013495 18.8041 0.00415232C18.7834 0.00181664 18.759 0 18.7312 0C18.6176 0 18.5292 0.0298447 18.475 0.0550181C18.4195 0.0807105 18.3689 0.115746 18.3258 0.159085L1.12052 17.3686C1.05308 17.4361 1.00561 17.5207 0.983046 17.6133L0.967223 17.6792C0.963332 17.6953 0.960219 17.7111 0.957885 17.7278L0.00461479 24.3631C-0.0179524 24.5349 0.043005 24.7117 0.170886 24.8396C0.276199 24.9429 0.415753 25 0.564126 25C0.588768 25 0.613151 24.9982 0.637793 24.9945L7.28448 24.0424C7.41444 24.0299 7.53298 23.9731 7.63129 23.8755L24.8296 6.66367C24.9393 6.55675 25 6.41298 25 6.25908C24.9997 6.10726 24.9403 5.96505 24.8353 5.8615ZM4.92089 18.8253C4.82129 18.8253 4.72168 18.7874 4.64568 18.7113L3.98448 18.0498C3.91159 17.9769 3.87061 17.8778 3.87061 17.7745C3.87061 17.6712 3.91159 17.5723 3.98448 17.4991L15.4803 5.99749C15.6323 5.84541 15.8784 5.84541 16.0304 5.99749L16.6919 6.65926C16.7648 6.73219 16.8058 6.83132 16.8058 6.93461C16.8058 7.0379 16.7648 7.13678 16.6919 7.20996L5.19611 18.7113C5.12011 18.7874 5.0205 18.8253 4.92089 18.8253ZM18.9992 9.51812L7.50289 21.0195C7.43 21.0924 7.33091 21.1334 7.22768 21.1334C7.12444 21.1334 7.02561 21.0924 6.95246 21.0195L6.29127 20.3575C6.13952 20.2054 6.13952 19.9591 6.29127 19.807L17.7871 8.30565C17.8599 8.23273 17.959 8.19172 18.0623 8.19172C18.1655 8.19172 18.2643 8.23273 18.3375 8.30565L18.9989 8.96768C19.1512 9.11976 19.1512 9.36605 18.9992 9.51812Z" fill="black"/>
</svg>
