<svg width="20" height="20" viewBox="0 0 20 20" fill="none" xmlns="http://www.w3.org/2000/svg">
<path d="M19.8682 4.6892L15.3044 0.123739C15.2317 0.0510734 15.1388 0.010796 15.0433 0.00332185C15.0267 0.00145331 15.0072 0 14.985 0C14.8941 0 14.8233 0.0238758 14.78 0.0440145C14.7356 0.0645684 14.6951 0.0925964 14.6607 0.127268L0.896419 13.8949C0.842466 13.9488 0.80449 14.0165 0.786437 14.0906L0.773778 14.1434C0.770666 14.1563 0.768175 14.1689 0.766308 14.1822L0.00369183 19.4905C-0.0143619 19.628 0.034404 19.7693 0.136709 19.8717C0.22096 19.9543 0.332602 20 0.451301 20C0.471015 20 0.490521 19.9985 0.510235 19.9956L5.82759 19.2339C5.93155 19.2239 6.02639 19.1785 6.10503 19.1004L19.8637 5.33094C19.9514 5.2454 20 5.13038 20 5.00727C19.9998 4.88581 19.9523 4.77204 19.8682 4.6892ZM3.93671 15.0602C3.85703 15.0602 3.77734 15.0299 3.71654 14.9691L3.18759 14.4399C3.12928 14.3815 3.09649 14.3022 3.09649 14.2196C3.09649 14.1369 3.12928 14.0578 3.18759 13.9993L12.3842 4.79799C12.5058 4.67633 12.7028 4.67633 12.8244 4.79799L13.3535 5.32741C13.4118 5.38575 13.4446 5.46506 13.4446 5.54769C13.4446 5.63032 13.4118 5.70942 13.3535 5.76797L4.15689 14.9691C4.09609 15.0299 4.0164 15.0602 3.93671 15.0602ZM15.1994 7.6145L6.00231 16.8156C5.944 16.8739 5.86473 16.9067 5.78214 16.9067C5.69955 16.9067 5.62049 16.8739 5.56197 16.8156L5.03301 16.286C4.91162 16.1643 4.91162 15.9673 5.03301 15.8456L14.2296 6.64452C14.288 6.58618 14.3672 6.55338 14.4498 6.55338C14.5324 6.55338 14.6115 6.58618 14.67 6.64452L15.1992 7.17415C15.321 7.29581 15.321 7.49284 15.1994 7.6145Z" fill="#E5E5E5"/>
</svg>
