<svg width="778" height="624" viewBox="0 0 778 624" fill="none" xmlns="http://www.w3.org/2000/svg">
<g opacity="0.2">
<path d="M355.098 406C355.098 415.342 362.681 422.912 371.998 422.912C381.364 422.912 388.923 415.342 388.923 406C388.923 396.657 381.364 389.087 371.998 389.087C362.681 389.087 355.098 396.657 355.098 406Z" fill="black"/>
<path d="M118.25 0V812H625.75V0H118.25ZM591.925 778.15H152.1V33.8376H591.925V778.15Z" fill="black"/>
<path d="M262.053 372.163H481.978C528.194 337.445 558.103 282.174 558.103 219.913C558.103 157.665 528.194 102.392 481.978 67.6628H262.053C215.837 102.392 185.928 157.665 185.928 219.913C185.928 282.174 215.837 337.445 262.053 372.163ZM219.753 219.913C219.753 194.872 225.502 170.972 236.776 148.855C245.944 130.926 258.683 114.732 273.971 101.5H470.058C485.348 114.733 498.085 130.927 507.253 148.855C518.529 170.972 524.253 194.872 524.253 219.913C524.253 244.953 518.529 268.866 507.253 290.983C498.085 308.9 485.346 325.106 470.058 338.338H273.973C258.683 325.105 245.946 308.898 236.778 290.983C225.502 268.866 219.753 244.953 219.753 219.913Z" fill="black"/>
<path d="M355.101 304.5H388.926C398.268 304.5 405.851 296.931 405.851 287.588C405.851 278.245 398.268 270.663 388.926 270.663C388.926 270.663 388.926 270.663 388.9 270.663H355.125C355.099 270.663 355.099 270.663 355.099 270.663C345.756 270.663 338.174 278.245 338.174 287.588C338.174 296.931 345.758 304.5 355.101 304.5Z" fill="black"/>
<path d="M422.775 219.912C422.775 229.255 430.334 236.838 439.675 236.838C449.016 236.838 456.6 229.255 456.6 219.912V169.162C456.6 159.82 449.018 152.25 439.675 152.25C430.332 152.25 422.75 159.82 422.75 169.162L422.775 169.175V219.912Z" fill="black"/>
<path d="M287.428 219.912C287.428 229.255 295.01 236.838 304.353 236.838C313.696 236.838 321.278 229.255 321.278 219.912V169.162H321.253C321.253 159.82 313.694 152.25 304.353 152.25C295.012 152.25 287.428 159.82 287.428 169.162V169.175V219.912Z" fill="black"/>
<path d="M262.053 744.348H481.978C528.194 709.607 558.103 654.346 558.103 592.098C558.103 529.825 528.194 474.541 481.978 439.848H262.053C215.837 474.541 185.928 529.825 185.928 592.098C185.928 654.346 215.837 709.607 262.053 744.348ZM219.753 592.098C219.753 567.045 225.502 543.132 236.776 521.028C245.944 503.086 258.683 486.881 273.971 473.648H470.058C485.348 486.881 498.085 503.087 507.253 521.028C518.529 543.132 524.253 567.045 524.253 592.098C524.253 617.126 518.529 641.015 507.253 663.144C498.085 681.06 485.346 697.267 470.058 710.498H273.973C258.683 697.265 245.946 681.058 236.778 663.144C225.502 641.015 219.753 617.126 219.753 592.098Z" fill="black"/>
<path d="M422.775 592.102C422.775 601.42 430.334 609.002 439.675 609.002C449.016 609.002 456.6 601.42 456.6 592.102V541.352C456.6 531.986 449.018 524.402 439.675 524.402C430.332 524.402 422.75 531.986 422.75 541.352H422.775V592.102Z" fill="black"/>
<path d="M287.428 592.102C287.428 601.42 295.01 609.002 304.353 609.002C313.696 609.002 321.278 601.42 321.278 592.102V541.352H321.253C321.253 531.986 313.694 524.402 304.353 524.402C295.012 524.402 287.428 531.984 287.428 541.352V592.102Z" fill="black"/>
</g>
</svg>
